<svg width="858" height="813" viewBox="0 0 858 813" fill="none" xmlns="http://www.w3.org/2000/svg">
<g clip-path="url(#clip0_67_22235)">
<rect width="876.982" height="819" transform="translate(-19 -6)" fill="white"/>
<rect x="-19" y="-6" width="876.982" height="819" fill="url(#paint0_linear_67_22235)"/>
<path d="M183.188 395.953H177.8V390.772V385.591H172.619V390.772V395.953H167.232H162.051V401.134H167.232H172.412V406.314V411.495H177.593V406.314V401.134H182.774H187.954V395.953H183.188ZM177.8 401.341H172.619V395.953H177.8V401.341Z" fill="url(#paint1_linear_67_22235)"/>
<path d="M603.449 715.293H598.269V710.112V704.724H593.088V709.905V715.086H587.907H582.727V720.266H587.907H593.088V725.447V730.628H598.269V725.447V720.266H603.449H608.63V715.086H603.449V715.293ZM598.062 720.681H592.881V715.5H598.062V720.681Z" fill="url(#paint2_linear_67_22235)"/>
<path d="M259.033 587.018H253.853V581.837V576.656H248.672V581.837V587.018H243.491H238.311V592.199H243.491H248.672V597.379V602.56H253.853V597.379V592.199H259.033H264.214V587.018H259.033ZM253.646 592.199H248.465V587.018H253.646V592.199Z" fill="white"/>
<path d="M-15.7447 29.7855H-4.3206V17.2414H8.44749V4.47329H18.0796V-8.0708H40.4797V4.47329H64.8959V17.2414H85.0561V29.7855H108.576V42.5536H141.952V55.0977H-31.4248V42.5536H-15.7447V29.7855Z" fill="#B7A6CE"/>
<path d="M182.355 749.183H170.931V736.639H158.163V723.871H148.531V711.327H126.131V723.871H101.715V736.639H81.5546V749.183H58.0345V761.951H24.6582V774.495H198.036V761.951H182.355V749.183Z" fill="#D8D5DB"/>
<path d="M-43.9247 278.505H-32.2767V265.737H-19.7326V253.193H-9.87648V240.425H12.2997V253.193H36.7159V265.737H56.876V278.505H80.3962V291.049H113.996V303.593H-59.3809V291.049H-43.9247V278.505Z" fill="#B7A6CE" stroke="#110151" stroke-width="3.36003" stroke-miterlimit="10" stroke-linejoin="round"/>
<path d="M486.353 234.611C474.926 240.753 460.927 239.753 451.071 222.184C465.07 217.042 479.211 221.041 486.353 234.611Z" fill="url(#paint3_linear_67_22235)" stroke="#110151" stroke-width="2.14263" stroke-miterlimit="10" stroke-linejoin="round"/>
<path d="M578.486 229.326C578.486 229.326 511.637 248.752 464.07 227.754" stroke="#110151" stroke-width="2.14263" stroke-miterlimit="10" stroke-linecap="round" stroke-linejoin="round"/>
<path d="M506.471 237.991C500.688 249.529 488.493 256.694 470.363 248.156C479.087 235.782 492.912 231.103 506.471 237.991Z" fill="url(#paint4_linear_67_22235)" stroke="#110151" stroke-width="2.14263" stroke-miterlimit="10" stroke-linejoin="round"/>
<path d="M506.471 237.991C499.244 241.127 491.828 243.575 484.143 245.148" stroke="#110151" stroke-width="2.14263" stroke-miterlimit="10" stroke-linecap="round" stroke-linejoin="round"/>
<path d="M503.351 236.897C490.638 234.04 480.925 223.898 485.067 204.186C499.066 209.614 506.922 222.041 503.351 236.897Z" fill="url(#paint5_linear_67_22235)" stroke="#110151" stroke-width="2.14263" stroke-miterlimit="10" stroke-linejoin="round"/>
<path d="M503.351 236.898C498.637 230.612 494.352 224.042 491.209 216.9" stroke="#110151" stroke-width="2.14263" stroke-miterlimit="10" stroke-linecap="round" stroke-linejoin="round"/>
<path d="M532.845 238.834C528.604 251.135 517.636 259.859 498.43 253.66C505.265 240.234 518.418 233.754 532.845 238.834Z" fill="url(#paint6_linear_67_22235)" stroke="#110151" stroke-width="2.14263" stroke-miterlimit="10" stroke-linejoin="round"/>
<path d="M532.844 238.835C526.152 242.95 519.086 246.457 511.67 248.905" stroke="#110151" stroke-width="2.14263" stroke-miterlimit="10" stroke-linecap="round" stroke-linejoin="round"/>
<path d="M528.921 237.182C516.065 235.896 505.066 227.04 506.78 207.042C521.35 210.756 530.635 222.04 528.921 237.182Z" fill="url(#paint7_linear_67_22235)" stroke="#110151" stroke-width="2.14263" stroke-miterlimit="10" stroke-linejoin="round"/>
<path d="M528.921 237.181C523.493 231.61 518.494 225.468 514.352 218.897" stroke="#110151" stroke-width="2.14263" stroke-miterlimit="10" stroke-linecap="round" stroke-linejoin="round"/>
<path d="M557.6 237.209C554.74 249.901 544.572 259.709 524.978 255.66C530.404 241.524 542.729 233.643 557.6 237.209Z" fill="url(#paint8_linear_67_22235)" stroke="#110151" stroke-width="2.14263" stroke-miterlimit="10" stroke-linejoin="round"/>
<path d="M557.601 237.208C551.416 241.985 544.724 246.1 537.71 249.474" stroke="#110151" stroke-width="2.14263" stroke-miterlimit="10" stroke-linecap="round" stroke-linejoin="round"/>
<path d="M553.06 235.039C540.061 235.039 528.206 227.469 527.92 207.328C542.775 209.471 553.203 219.755 553.06 235.039Z" fill="url(#paint9_linear_67_22235)" stroke="#110151" stroke-width="2.14263" stroke-miterlimit="10" stroke-linejoin="round"/>
<path d="M553.06 235.04C547.06 230.04 541.489 224.469 536.633 218.327" stroke="#110151" stroke-width="2.14263" stroke-miterlimit="10" stroke-linecap="round" stroke-linejoin="round"/>
<path d="M23.2082 729.139C8.06697 730.282 -6.50288 722.283 -8.64551 698.714C8.92402 699.999 22.0655 711.284 23.2082 729.139Z" fill="url(#paint10_linear_67_22235)" stroke="#110151" stroke-width="2.14263" stroke-miterlimit="10" stroke-linejoin="round"/>
<path d="M124.34 767.992C124.34 767.992 43.206 756.422 2.49609 710.998" stroke="#110151" stroke-width="2.14263" stroke-miterlimit="10" stroke-linecap="round" stroke-linejoin="round"/>
<path d="M40.3496 739.852C32.9218 753.137 18.2091 760.85 -2.50293 749.708C8.2102 735.71 24.7798 730.853 40.3496 739.852Z" fill="url(#paint11_linear_67_22235)" stroke="#110151" stroke-width="2.14263" stroke-miterlimit="10" stroke-linejoin="round"/>
<path d="M40.3498 739.852C31.7793 743.138 22.7803 745.709 13.7812 746.994" stroke="#110151" stroke-width="2.14263" stroke-miterlimit="10" stroke-linecap="round" stroke-linejoin="round"/>
<path d="M40.3502 739.852C28.2086 730.71 22.6378 714.998 36.4934 696C48.9207 708.57 51.349 725.568 40.3502 739.852Z" fill="url(#paint12_linear_67_22235)" stroke="#110151" stroke-width="2.14263" stroke-miterlimit="10" stroke-linejoin="round"/>
<path d="M40.3501 739.852C38.2074 730.853 37.0647 721.711 36.9219 712.569" stroke="#110151" stroke-width="2.14263" stroke-miterlimit="10" stroke-linecap="round" stroke-linejoin="round"/>
<path d="M67.49 752.565C61.9191 766.707 48.3492 776.277 26.3516 767.992C35.0649 752.708 50.7775 745.709 67.49 752.565Z" fill="url(#paint13_linear_67_22235)" stroke="#110151" stroke-width="2.14263" stroke-miterlimit="10" stroke-linejoin="round"/>
<path d="M67.4893 752.565C59.3473 756.993 50.9197 760.707 42.0635 763.136" stroke="#110151" stroke-width="2.14263" stroke-miterlimit="10" stroke-linecap="round" stroke-linejoin="round"/>
<path d="M67.49 752.565C54.3486 744.852 46.9208 730.139 58.3481 709.427C72.2038 720.426 76.6319 737.138 67.49 752.565Z" fill="url(#paint14_linear_67_22235)" stroke="#110151" stroke-width="2.14263" stroke-miterlimit="10" stroke-linejoin="round"/>
<path d="M67.4899 752.565C64.3474 743.852 62.0619 734.996 60.7764 725.854" stroke="#110151" stroke-width="2.14263" stroke-miterlimit="10" stroke-linecap="round" stroke-linejoin="round"/>
<path d="M94.343 761.85C90.2006 776.563 77.7733 787.562 55.0615 781.562C62.2036 765.421 77.0591 756.851 94.343 761.85Z" fill="url(#paint15_linear_67_22235)" stroke="#110151" stroke-width="2.14263" stroke-miterlimit="10" stroke-linejoin="round"/>
<path d="M94.3414 761.85C86.7708 767.135 78.7717 771.563 70.2012 775.134" stroke="#110151" stroke-width="2.14263" stroke-miterlimit="10" stroke-linecap="round" stroke-linejoin="round"/>
<path d="M94.3426 761.85C80.4869 755.565 71.4879 741.709 80.7726 719.997C95.771 729.425 101.913 745.566 94.3426 761.85Z" fill="url(#paint16_linear_67_22235)" stroke="#110151" stroke-width="2.14263" stroke-miterlimit="10" stroke-linejoin="round"/>
<path d="M94.3426 761.85C90.343 753.565 87.0577 744.852 84.915 735.995" stroke="#110151" stroke-width="2.14263" stroke-miterlimit="10" stroke-linecap="round" stroke-linejoin="round"/>
<g opacity="0.85">
<path d="M847.51 397.381C846.065 380.04 854.916 363.421 881.65 360.531C880.566 380.582 867.922 395.755 847.51 397.381Z" fill="url(#paint17_linear_67_22235)" stroke="#110151" stroke-width="2.70953" stroke-miterlimit="10" stroke-linejoin="round"/>
<path d="M804.879 513.529C804.879 513.529 816.62 420.683 868.101 373.537" stroke="#110151" stroke-width="2.70953" stroke-miterlimit="10" stroke-linecap="round" stroke-linejoin="round"/>
<path d="M835.591 417.25C820.237 408.941 811.205 392.323 823.669 368.479C839.745 380.401 845.526 399.187 835.591 417.25Z" fill="url(#paint18_linear_67_22235)" stroke="#110151" stroke-width="2.70953" stroke-miterlimit="10" stroke-linejoin="round"/>
<path d="M835.59 417.25C831.616 407.496 828.726 397.38 827.101 387.084" stroke="#110151" stroke-width="2.70953" stroke-miterlimit="10" stroke-linecap="round" stroke-linejoin="round"/>
<path d="M835.588 417.251C845.884 403.161 863.586 396.477 885.624 412.193C871.354 426.463 852.026 429.534 835.588 417.251Z" fill="url(#paint19_linear_67_22235)" stroke="#110151" stroke-width="2.70953" stroke-miterlimit="10" stroke-linejoin="round"/>
<path d="M835.588 417.251C845.884 414.722 856.18 413.096 866.657 412.915" stroke="#110151" stroke-width="2.70953" stroke-miterlimit="10" stroke-linecap="round" stroke-linejoin="round"/>
<path d="M821.498 448.32C805.241 442.178 794.041 426.824 803.073 401.535C820.775 411.29 829.084 429.172 821.498 448.32Z" fill="url(#paint20_linear_67_22235)" stroke="#110151" stroke-width="2.70953" stroke-miterlimit="10" stroke-linejoin="round"/>
<path d="M821.499 448.32C816.261 439.107 811.925 429.534 809.035 419.599" stroke="#110151" stroke-width="2.70953" stroke-miterlimit="10" stroke-linecap="round" stroke-linejoin="round"/>
<path d="M821.5 448.32C829.99 433.146 846.789 424.476 870.452 437.301C858.169 453.197 839.383 458.616 821.5 448.32Z" fill="url(#paint21_linear_67_22235)" stroke="#110151" stroke-width="2.70953" stroke-miterlimit="10" stroke-linejoin="round"/>
<path d="M821.5 448.32C831.254 444.526 841.551 441.817 851.847 440.191" stroke="#110151" stroke-width="2.70953" stroke-miterlimit="10" stroke-linecap="round" stroke-linejoin="round"/>
<path d="M811.384 479.209C794.585 474.873 781.76 460.784 788.263 434.592C806.687 442.54 816.803 459.519 811.384 479.209Z" fill="url(#paint22_linear_67_22235)" stroke="#110151" stroke-width="2.70953" stroke-miterlimit="10" stroke-linejoin="round"/>
<path d="M811.384 479.208C805.243 470.719 800.004 461.506 795.85 451.932" stroke="#110151" stroke-width="2.70953" stroke-miterlimit="10" stroke-linecap="round" stroke-linejoin="round"/>
<path d="M811.383 479.208C818.247 463.132 834.143 452.836 858.89 462.951C848.232 480.292 829.988 487.518 811.383 479.208Z" fill="url(#paint23_linear_67_22235)" stroke="#110151" stroke-width="2.70953" stroke-miterlimit="10" stroke-linejoin="round"/>
<path d="M811.383 479.208C820.776 474.512 830.53 470.538 840.646 468.009" stroke="#110151" stroke-width="2.70953" stroke-miterlimit="10" stroke-linecap="round" stroke-linejoin="round"/>
</g>
<g opacity="0.85">
<path d="M223.164 72.2656C221.719 54.9246 230.57 38.3061 257.304 35.416C256.22 55.4665 243.576 70.6399 223.164 72.2656Z" fill="url(#paint24_linear_67_22235)" stroke="#110151" stroke-width="2.70953" stroke-miterlimit="10" stroke-linejoin="round"/>
<path d="M180.533 188.414C180.533 188.414 192.275 95.5676 243.756 48.4218" stroke="#110151" stroke-width="2.70953" stroke-miterlimit="10" stroke-linecap="round" stroke-linejoin="round"/>
<path d="M211.245 92.1353C195.891 83.8261 186.859 67.2076 199.323 43.3638C215.4 55.2857 221.18 74.0718 211.245 92.1353Z" fill="url(#paint25_linear_67_22235)" stroke="#110151" stroke-width="2.70953" stroke-miterlimit="10" stroke-linejoin="round"/>
<path d="M211.245 92.1353C207.271 82.381 204.381 72.2654 202.755 61.9692" stroke="#110151" stroke-width="2.70953" stroke-miterlimit="10" stroke-linecap="round" stroke-linejoin="round"/>
<path d="M211.242 92.1355C221.538 78.0459 239.241 71.3624 261.278 87.0777C247.008 101.348 227.68 104.419 211.242 92.1355Z" fill="url(#paint26_linear_67_22235)" stroke="#110151" stroke-width="2.70953" stroke-miterlimit="10" stroke-linejoin="round"/>
<path d="M211.242 92.1355C221.538 89.6066 231.835 87.9809 242.311 87.8003" stroke="#110151" stroke-width="2.70953" stroke-miterlimit="10" stroke-linecap="round" stroke-linejoin="round"/>
<path d="M197.152 123.205C180.895 117.063 169.695 101.709 178.727 76.4202C196.429 86.1745 204.739 104.057 197.152 123.205Z" fill="url(#paint27_linear_67_22235)" stroke="#110151" stroke-width="2.70953" stroke-miterlimit="10" stroke-linejoin="round"/>
<path d="M197.153 123.205C191.915 113.992 187.58 104.419 184.689 94.4836" stroke="#110151" stroke-width="2.70953" stroke-miterlimit="10" stroke-linecap="round" stroke-linejoin="round"/>
<path d="M197.154 123.205C205.644 108.031 222.443 99.3609 246.106 112.186C233.823 128.082 215.037 133.501 197.154 123.205Z" fill="url(#paint28_linear_67_22235)" stroke="#110151" stroke-width="2.70953" stroke-miterlimit="10" stroke-linejoin="round"/>
<path d="M197.154 123.205C206.909 119.411 217.205 116.702 227.501 115.076" stroke="#110151" stroke-width="2.70953" stroke-miterlimit="10" stroke-linecap="round" stroke-linejoin="round"/>
<path d="M187.038 154.093C170.239 149.758 157.414 135.669 163.917 109.477C182.342 117.425 192.457 134.404 187.038 154.093Z" fill="url(#paint29_linear_67_22235)" stroke="#110151" stroke-width="2.70953" stroke-miterlimit="10" stroke-linejoin="round"/>
<path d="M187.039 154.093C180.897 145.603 175.659 136.391 171.504 126.817" stroke="#110151" stroke-width="2.70953" stroke-miterlimit="10" stroke-linecap="round" stroke-linejoin="round"/>
<path d="M187.037 154.093C193.901 138.017 209.797 127.721 234.544 137.836C223.887 155.177 205.643 162.403 187.037 154.093Z" fill="url(#paint30_linear_67_22235)" stroke="#110151" stroke-width="2.70953" stroke-miterlimit="10" stroke-linejoin="round"/>
<path d="M187.037 154.093C196.43 149.397 206.184 145.423 216.3 142.894" stroke="#110151" stroke-width="2.70953" stroke-miterlimit="10" stroke-linecap="round" stroke-linejoin="round"/>
</g>
<path d="M745.748 385.614H738.935V379.062V372.511H732.383V379.062V385.614H725.832H719.28V392.165H725.832H732.383V398.717V405.268H738.935V398.717V392.165H745.486H752.038V385.614H745.748ZM738.935 392.165H732.383V385.614H738.935V392.165Z" fill="url(#paint31_linear_67_22235)"/>
<path d="M88.2287 68.4535H81.6772V61.64V55.0885H74.8637V61.64V68.1914H68.3122H61.7607V74.7429H68.3122H74.8637V81.2944V87.8458H81.4151V81.2944V75.005H87.9666H94.5181V68.4535H88.2287ZM81.6772 75.005H74.8637V68.4535H81.4151V75.005H81.6772Z" fill="white"/>
<path d="M721.901 669.686H715.35V663.134V656.583H708.798V663.134V669.686H702.247H695.695V676.237H702.247H708.798V682.788V689.34H715.35V682.788V676.237H721.901H728.453V669.686H721.901ZM715.35 676.499H708.798V669.948H715.35V676.499Z" fill="white"/>
<path d="M852.395 41.8725H837.948V26.0094H821.802V9.86307H809.621V-6H781.294V9.86307H750.418V26.0094H724.924V41.8725H695.181V58.0188H652.974V73.8819H872.224V58.0188H852.395V41.8725Z" fill="#B7A6CE"/>
<path d="M872.017 692.814H857.287V676.667H841.424V660.804H828.96V644.658H800.917V660.804H770.04V676.667H744.546V692.814H714.52V708.677H672.312V724.54H891.563V708.677H872.017V692.814Z" fill="white" stroke="#110151" stroke-width="4.24904" stroke-miterlimit="10" stroke-linejoin="round"/>
<g opacity="0.85">
<path d="M495.223 595.264C514.189 591.832 529.363 577.382 524.486 547.938C503.351 554.983 490.887 572.866 495.223 595.264Z" fill="url(#paint32_linear_67_22235)" stroke="#110151" stroke-width="2.70953" stroke-miterlimit="10" stroke-linejoin="round"/>
<path d="M383.77 674.925C383.77 674.925 479.326 635.004 514.55 566.182" stroke="#110151" stroke-width="2.70953" stroke-miterlimit="10" stroke-linecap="round" stroke-linejoin="round"/>
<path d="M477.7 613.689C491.067 627.598 511.479 632.295 533.336 612.064C515.634 598.335 493.957 597.793 477.7 613.689Z" fill="url(#paint33_linear_67_22235)" stroke="#110151" stroke-width="2.70953" stroke-miterlimit="10" stroke-linejoin="round"/>
<path d="M477.7 613.689C489.261 614.954 501.002 615.134 512.382 613.87" stroke="#110151" stroke-width="2.70953" stroke-miterlimit="10" stroke-linecap="round" stroke-linejoin="round"/>
<path d="M477.7 613.689C489.621 598.516 491.608 577.743 468.487 558.776C457.288 578.285 459.636 599.78 477.7 613.689Z" fill="url(#paint34_linear_67_22235)" stroke="#110151" stroke-width="2.70953" stroke-miterlimit="10" stroke-linejoin="round"/>
<path d="M477.699 613.689C477.338 602.129 476.074 590.387 473.184 579.188" stroke="#110151" stroke-width="2.70953" stroke-miterlimit="10" stroke-linecap="round" stroke-linejoin="round"/>
<path d="M448.437 637.894C459.817 653.429 479.506 660.835 503.711 643.675C488.176 627.779 466.681 624.347 448.437 637.894Z" fill="url(#paint35_linear_67_22235)" stroke="#110151" stroke-width="2.70953" stroke-miterlimit="10" stroke-linejoin="round"/>
<path d="M448.437 637.895C459.817 640.785 471.377 642.411 482.938 642.772" stroke="#110151" stroke-width="2.70953" stroke-miterlimit="10" stroke-linecap="round" stroke-linejoin="round"/>
<path d="M448.438 637.894C462.166 624.347 466.501 603.754 445.909 582.259C432.542 600.142 432.361 621.998 448.438 637.894Z" fill="url(#paint36_linear_67_22235)" stroke="#110151" stroke-width="2.70953" stroke-miterlimit="10" stroke-linejoin="round"/>
<path d="M448.439 637.894C449.523 626.334 449.523 614.592 448.078 603.212" stroke="#110151" stroke-width="2.70953" stroke-miterlimit="10" stroke-linecap="round" stroke-linejoin="round"/>
<path d="M418.451 657.945C428.205 674.563 446.811 684.137 472.822 669.506C459.094 651.984 438.14 646.204 418.451 657.945Z" fill="url(#paint37_linear_67_22235)" stroke="#110151" stroke-width="2.70953" stroke-miterlimit="10" stroke-linejoin="round"/>
<path d="M418.451 657.945C429.47 661.919 440.669 664.99 452.23 666.435" stroke="#110151" stroke-width="2.70953" stroke-miterlimit="10" stroke-linecap="round" stroke-linejoin="round"/>
<path d="M418.451 657.945C433.443 645.842 439.946 625.972 421.702 602.309C406.529 618.747 404.18 640.423 418.451 657.945Z" fill="url(#paint38_linear_67_22235)" stroke="#110151" stroke-width="2.70953" stroke-miterlimit="10" stroke-linejoin="round"/>
<path d="M418.45 657.945C420.798 646.565 422.063 634.823 421.702 623.263" stroke="#110151" stroke-width="2.70953" stroke-miterlimit="10" stroke-linecap="round" stroke-linejoin="round"/>
</g>
<path d="M750.735 703.438C763.199 688.807 765.908 668.034 743.69 648.164C731.768 667.131 733.394 688.807 750.735 703.438Z" fill="url(#paint39_linear_67_22235)" stroke="#110151" stroke-width="2.70953" stroke-miterlimit="10" stroke-linejoin="round"/>
<path d="M714.608 835.663C714.608 835.663 763.561 744.443 747.665 668.756" stroke="#110151" stroke-width="2.70953" stroke-miterlimit="10" stroke-linecap="round" stroke-linejoin="round"/>
<path d="M748.748 728.908C767.895 731.256 786.681 722.044 790.836 692.6C768.618 693.142 751.458 706.328 748.748 728.908Z" fill="url(#paint40_linear_67_22235)" stroke="#110151" stroke-width="2.70953" stroke-miterlimit="10" stroke-linejoin="round"/>
<path d="M748.748 728.908C758.502 722.586 767.715 715.36 775.843 707.232" stroke="#110151" stroke-width="2.70953" stroke-miterlimit="10" stroke-linecap="round" stroke-linejoin="round"/>
<path d="M748.75 728.908C748.57 709.761 736.828 692.239 707.023 692.239C710.456 714.276 725.99 729.63 748.75 728.908Z" fill="url(#paint41_linear_67_22235)" stroke="#110151" stroke-width="2.70953" stroke-miterlimit="10" stroke-linejoin="round"/>
<path d="M748.75 728.908C741.163 720.057 732.673 711.928 723.461 705.064" stroke="#110151" stroke-width="2.70953" stroke-miterlimit="10" stroke-linecap="round" stroke-linejoin="round"/>
<path d="M741.342 766.119C759.947 770.996 779.817 764.493 787.946 735.772C765.728 733.243 746.941 744.081 741.342 766.119Z" fill="url(#paint42_linear_67_22235)" stroke="#110151" stroke-width="2.70953" stroke-miterlimit="10" stroke-linejoin="round"/>
<path d="M741.342 766.119C751.819 761.242 761.934 755.281 771.147 748.236" stroke="#110151" stroke-width="2.70953" stroke-miterlimit="10" stroke-linecap="round" stroke-linejoin="round"/>
<path d="M741.344 766.119C743.331 746.972 733.938 728.185 704.313 724.573C705.217 746.971 718.764 763.951 741.344 766.119Z" fill="url(#paint43_linear_67_22235)" stroke="#110151" stroke-width="2.70953" stroke-miterlimit="10" stroke-linejoin="round"/>
<path d="M741.344 766.119C734.841 756.365 727.435 747.333 719.126 739.385" stroke="#110151" stroke-width="2.70953" stroke-miterlimit="10" stroke-linecap="round" stroke-linejoin="round"/>
<path d="M730.686 800.62C748.749 807.484 769.161 802.968 780.18 775.331C758.503 770.454 738.634 779.124 730.686 800.62Z" fill="url(#paint44_linear_67_22235)" stroke="#110151" stroke-width="2.70953" stroke-miterlimit="10" stroke-linejoin="round"/>
<path d="M730.686 800.62C741.704 796.827 752.362 791.95 762.116 785.989" stroke="#110151" stroke-width="2.70953" stroke-miterlimit="10" stroke-linecap="round" stroke-linejoin="round"/>
<path d="M730.684 800.62C734.658 781.834 727.252 762.145 698.17 755.461C696.725 777.679 708.466 796.104 730.684 800.62Z" fill="url(#paint45_linear_67_22235)" stroke="#110151" stroke-width="2.70953" stroke-miterlimit="10" stroke-linejoin="round"/>
<path d="M730.683 800.62C725.264 790.324 718.942 780.569 711.355 771.718" stroke="#110151" stroke-width="2.70953" stroke-miterlimit="10" stroke-linecap="round" stroke-linejoin="round"/>
<path d="M704.796 733.847C692.693 721.384 689.08 702.778 708.228 683.631C719.969 700.069 719.788 719.758 704.796 733.847Z" fill="url(#paint46_linear_67_22235)" stroke="#110151" stroke-width="2.70953" stroke-miterlimit="10" stroke-linejoin="round"/>
<path d="M744.717 851.08C744.717 851.08 695.584 771.6 705.699 702.598" stroke="#110151" stroke-width="2.70953" stroke-miterlimit="10" stroke-linecap="round" stroke-linejoin="round"/>
<path d="M708.047 756.788C690.887 760.039 673.365 752.814 668.127 726.261C688.177 725.538 704.435 736.557 708.047 756.788Z" fill="url(#paint47_linear_67_22235)" stroke="#110151" stroke-width="2.70953" stroke-miterlimit="10" stroke-linejoin="round"/>
<path d="M708.048 756.788C698.835 751.73 690.165 745.589 682.397 738.724" stroke="#110151" stroke-width="2.70953" stroke-miterlimit="10" stroke-linecap="round" stroke-linejoin="round"/>
<path d="M708.049 756.788C707.327 739.447 716.901 723.009 743.635 721.384C741.828 741.434 728.642 756.066 708.049 756.788Z" fill="url(#paint48_linear_67_22235)" stroke="#110151" stroke-width="2.70953" stroke-miterlimit="10" stroke-linejoin="round"/>
<path d="M708.051 756.788C714.373 748.479 721.598 740.531 729.546 733.848" stroke="#110151" stroke-width="2.70953" stroke-miterlimit="10" stroke-linecap="round" stroke-linejoin="round"/>
<path d="M716.72 789.844C700.101 795.263 681.857 790.386 673.006 765.097C692.876 761.485 710.578 770.336 716.72 789.844Z" fill="url(#paint49_linear_67_22235)" stroke="#110151" stroke-width="2.70953" stroke-miterlimit="10" stroke-linejoin="round"/>
<path d="M716.719 789.844C706.965 786.051 697.572 781.174 688.901 775.393" stroke="#110151" stroke-width="2.70953" stroke-miterlimit="10" stroke-linecap="round" stroke-linejoin="round"/>
<path d="M716.718 789.844C713.828 772.684 721.415 755.343 747.788 750.466C748.33 770.516 736.95 786.593 716.718 789.844Z" fill="url(#paint50_linear_67_22235)" stroke="#110151" stroke-width="2.70953" stroke-miterlimit="10" stroke-linejoin="round"/>
<path d="M716.718 789.844C721.956 780.813 728.098 772.142 735.323 764.555" stroke="#110151" stroke-width="2.70953" stroke-miterlimit="10" stroke-linecap="round" stroke-linejoin="round"/>
<path d="M728.28 820.372C712.384 827.597 693.778 824.707 682.218 800.321C701.546 794.541 719.971 801.405 728.28 820.372Z" fill="url(#paint51_linear_67_22235)" stroke="#110151" stroke-width="2.70953" stroke-miterlimit="10" stroke-linejoin="round"/>
<path d="M728.281 820.372C718.166 817.482 708.231 813.869 699.019 808.811" stroke="#110151" stroke-width="2.70953" stroke-miterlimit="10" stroke-linecap="round" stroke-linejoin="round"/>
<path d="M728.28 820.372C723.584 803.573 729.183 785.509 755.014 777.922C757.724 797.792 748.15 814.953 728.28 820.372Z" fill="url(#paint52_linear_67_22235)" stroke="#110151" stroke-width="2.70953" stroke-miterlimit="10" stroke-linejoin="round"/>
<path d="M728.281 820.372C732.616 810.798 737.855 801.586 743.997 793.276" stroke="#110151" stroke-width="2.70953" stroke-miterlimit="10" stroke-linecap="round" stroke-linejoin="round"/>
<g opacity="0.85">
<path d="M121.395 372.881C121.395 372.881 18.7946 358.25 -32.6865 300.808" stroke="#110151" stroke-width="2.70953" stroke-miterlimit="10" stroke-linecap="round" stroke-linejoin="round"/>
<path d="M15.1808 337.296C5.78781 354.095 -12.8176 363.849 -39.0098 349.76C-25.4621 332.057 -4.50841 325.916 15.1808 337.296Z" fill="url(#paint53_linear_67_22235)" stroke="#110151" stroke-width="2.70953" stroke-miterlimit="10" stroke-linejoin="round"/>
<path d="M15.1822 337.296C4.34404 341.45 -7.03599 344.702 -18.416 346.327" stroke="#110151" stroke-width="2.70953" stroke-miterlimit="10" stroke-linecap="round" stroke-linejoin="round"/>
<path d="M15.1814 337.296C-0.172604 325.735 -7.21739 305.865 10.3042 281.841C26.0195 297.737 29.0903 319.232 15.1814 337.296Z" fill="url(#paint54_linear_67_22235)" stroke="#110151" stroke-width="2.70953" stroke-miterlimit="10" stroke-linejoin="round"/>
<path d="M15.181 337.296C12.4714 325.916 11.0263 314.355 10.8457 302.794" stroke="#110151" stroke-width="2.70953" stroke-miterlimit="10" stroke-linecap="round" stroke-linejoin="round"/>
<path d="M49.5035 353.372C42.4587 371.255 25.2983 383.358 -2.51953 372.881C8.49923 353.553 28.3691 344.702 49.5035 353.372Z" fill="url(#paint55_linear_67_22235)" stroke="#110151" stroke-width="2.70953" stroke-miterlimit="10" stroke-linejoin="round"/>
<path d="M49.5027 353.372C39.2065 358.972 28.549 363.669 17.3496 366.739" stroke="#110151" stroke-width="2.70953" stroke-miterlimit="10" stroke-linecap="round" stroke-linejoin="round"/>
<path d="M49.503 353.372C32.8846 343.618 23.4915 325.013 37.9424 298.82C55.464 312.729 61.0637 333.864 49.503 353.372Z" fill="url(#paint56_linear_67_22235)" stroke="#110151" stroke-width="2.70953" stroke-miterlimit="10" stroke-linejoin="round"/>
<path d="M49.5035 353.372C45.5296 342.354 42.6394 331.154 41.0137 319.594" stroke="#110151" stroke-width="2.70953" stroke-miterlimit="10" stroke-linecap="round" stroke-linejoin="round"/>
<path d="M83.4618 365.114C78.2234 383.719 62.5081 397.628 33.7871 390.041C42.8189 369.63 61.605 358.792 83.4618 365.114Z" fill="url(#paint57_linear_67_22235)" stroke="#110151" stroke-width="2.70953" stroke-miterlimit="10" stroke-linejoin="round"/>
<path d="M83.4619 365.114C73.8883 371.798 63.7727 377.397 52.9346 381.913" stroke="#110151" stroke-width="2.70953" stroke-miterlimit="10" stroke-linecap="round" stroke-linejoin="round"/>
<path d="M83.4622 365.114C65.9406 357.166 54.5605 339.644 66.3018 312.187C85.2686 324.109 93.0359 344.521 83.4622 365.114Z" fill="url(#paint58_linear_67_22235)" stroke="#110151" stroke-width="2.70953" stroke-miterlimit="10" stroke-linejoin="round"/>
<path d="M83.4629 365.114C78.4052 354.637 74.2505 343.618 71.541 332.419" stroke="#110151" stroke-width="2.70953" stroke-miterlimit="10" stroke-linecap="round" stroke-linejoin="round"/>
</g>
<path d="M615.714 173.131H610.533V167.951V162.77H605.353V167.951V173.131H600.172H594.991V178.312H600.172H605.353V183.493V188.674H610.533V183.493V178.312H615.714H620.895V173.131H615.714ZM610.533 178.519H605.353V173.131H610.533V178.519Z" fill="url(#paint59_linear_67_22235)"/>
<path d="M772.858 23.2292C755.246 24.5584 738.298 15.2538 735.806 -12.1617C756.243 -10.6664 771.529 2.45986 772.858 23.2292Z" fill="url(#paint60_linear_67_22235)" stroke="#110151" stroke-width="2.49232" stroke-miterlimit="10" stroke-linejoin="round"/>
<path d="M890.495 68.4233C890.495 68.4233 796.12 54.9648 748.766 2.12762" stroke="#110151" stroke-width="2.49232" stroke-miterlimit="10" stroke-linecap="round" stroke-linejoin="round"/>
<path d="M792.797 35.6908C784.157 51.1432 767.043 60.1156 742.95 47.1555C755.412 30.8724 774.686 25.2231 792.797 35.6908Z" fill="url(#paint61_linear_67_22235)" stroke="#110151" stroke-width="2.49232" stroke-miterlimit="10" stroke-linejoin="round"/>
<path d="M792.796 35.6907C782.827 39.5123 772.359 42.503 761.892 43.9984" stroke="#110151" stroke-width="2.49232" stroke-miterlimit="10" stroke-linecap="round" stroke-linejoin="round"/>
<path d="M792.798 35.6909C778.675 25.057 772.195 6.78001 788.312 -15.3185C802.767 -0.696942 805.592 19.0754 792.798 35.6909Z" fill="url(#paint62_linear_67_22235)" stroke="#110151" stroke-width="2.49232" stroke-miterlimit="10" stroke-linejoin="round"/>
<path d="M792.798 35.6908C790.306 25.2231 788.977 14.5892 788.811 3.95529" stroke="#110151" stroke-width="2.49232" stroke-miterlimit="10" stroke-linecap="round" stroke-linejoin="round"/>
<path d="M824.366 50.4785C817.886 66.9278 802.101 78.0601 776.514 68.4232C786.649 50.6446 804.926 42.5031 824.366 50.4785Z" fill="url(#paint63_linear_67_22235)" stroke="#110151" stroke-width="2.49232" stroke-miterlimit="10" stroke-linejoin="round"/>
<path d="M824.366 50.4785C814.895 55.6293 805.092 59.9493 794.79 62.7739" stroke="#110151" stroke-width="2.49232" stroke-miterlimit="10" stroke-linecap="round" stroke-linejoin="round"/>
<path d="M824.366 50.4786C809.08 41.5062 800.44 24.3923 813.733 0.299896C829.85 13.0938 835 32.5339 824.366 50.4786Z" fill="url(#paint64_linear_67_22235)" stroke="#110151" stroke-width="2.49232" stroke-miterlimit="10" stroke-linejoin="round"/>
<path d="M824.366 50.4787C820.71 40.3432 818.052 30.0416 816.557 19.4077" stroke="#110151" stroke-width="2.49232" stroke-miterlimit="10" stroke-linecap="round" stroke-linejoin="round"/>
<path d="M855.603 61.2788C850.784 78.3927 836.329 91.1866 809.91 84.2081C818.218 65.4326 835.498 55.4633 855.603 61.2788Z" fill="url(#paint65_linear_67_22235)" stroke="#110151" stroke-width="2.49232" stroke-miterlimit="10" stroke-linejoin="round"/>
<path d="M855.601 61.2789C846.794 67.4266 837.49 72.5774 827.521 76.7312" stroke="#110151" stroke-width="2.49232" stroke-miterlimit="10" stroke-linecap="round" stroke-linejoin="round"/>
<path d="M855.602 61.2786C839.485 53.9678 829.018 37.8508 839.818 12.5953C857.264 23.5615 864.408 42.337 855.602 61.2786Z" fill="url(#paint66_linear_67_22235)" stroke="#110151" stroke-width="2.49232" stroke-miterlimit="10" stroke-linejoin="round"/>
<path d="M855.602 61.2784C850.95 51.6415 847.128 41.506 844.636 31.2045" stroke="#110151" stroke-width="2.49232" stroke-miterlimit="10" stroke-linecap="round" stroke-linejoin="round"/>
<g filter="url(#filter0_f_67_22235)">
<circle cx="420.185" cy="813.177" r="197.938" transform="rotate(-180 420.185 813.177)" fill="url(#paint67_linear_67_22235)"/>
</g>
</g>
<defs>
<filter id="filter0_f_67_22235" x="116.539" y="509.531" width="607.292" height="607.291" filterUnits="userSpaceOnUse" color-interpolation-filters="sRGB">
<feFlood flood-opacity="0" result="BackgroundImageFix"/>
<feBlend mode="normal" in="SourceGraphic" in2="BackgroundImageFix" result="shape"/>
<feGaussianBlur stdDeviation="52.8539" result="effect1_foregroundBlur_67_22235"/>
</filter>
<linearGradient id="paint0_linear_67_22235" x1="419.491" y1="-6" x2="419.491" y2="813" gradientUnits="userSpaceOnUse">
<stop stop-color="#4509B7"/>
<stop offset="1" stop-color="#3066D3"/>
</linearGradient>
<linearGradient id="paint1_linear_67_22235" x1="162.051" y1="398.647" x2="188.404" y2="398.647" gradientUnits="userSpaceOnUse">
<stop stop-color="#FF9CBF"/>
<stop offset="1" stop-color="#171BFF"/>
</linearGradient>
<linearGradient id="paint2_linear_67_22235" x1="582.314" y1="717.956" x2="608.669" y2="717.956" gradientUnits="userSpaceOnUse">
<stop stop-color="#FFCEE0"/>
<stop offset="1" stop-color="#FF498A"/>
</linearGradient>
<linearGradient id="paint3_linear_67_22235" x1="453.352" y1="224.007" x2="481.977" y2="233.409" gradientUnits="userSpaceOnUse">
<stop stop-color="#FFCEE0"/>
<stop offset="1" stop-color="#FF498A"/>
</linearGradient>
<linearGradient id="paint4_linear_67_22235" x1="473.414" y1="248.241" x2="502.247" y2="239.51" gradientUnits="userSpaceOnUse">
<stop stop-color="#FFCEE0"/>
<stop offset="1" stop-color="#FF498A"/>
</linearGradient>
<linearGradient id="paint5_linear_67_22235" x1="485.658" y1="207.116" x2="500.935" y2="233.088" gradientUnits="userSpaceOnUse">
<stop stop-color="#FFCEE0"/>
<stop offset="1" stop-color="#FF498A"/>
</linearGradient>
<linearGradient id="paint6_linear_67_22235" x1="501.364" y1="253.401" x2="528.774" y2="240.899" gradientUnits="userSpaceOnUse">
<stop stop-color="#FFCEE0"/>
<stop offset="1" stop-color="#FF498A"/>
</linearGradient>
<linearGradient id="paint7_linear_67_22235" x1="507.683" y1="209.808" x2="525.985" y2="233.743" gradientUnits="userSpaceOnUse">
<stop stop-color="#FFCEE0"/>
<stop offset="1" stop-color="#FF498A"/>
</linearGradient>
<linearGradient id="paint8_linear_67_22235" x1="527.85" y1="254.942" x2="553.799" y2="239.632" gradientUnits="userSpaceOnUse">
<stop stop-color="#FFCEE0"/>
<stop offset="1" stop-color="#FF498A"/>
</linearGradient>
<linearGradient id="paint9_linear_67_22235" x1="529.073" y1="209.983" x2="549.785" y2="231.865" gradientUnits="userSpaceOnUse">
<stop stop-color="#FFCEE0"/>
<stop offset="1" stop-color="#FF498A"/>
</linearGradient>
<linearGradient id="paint10_linear_67_22235" x1="-7.05737" y1="701.846" x2="19.051" y2="725.765" gradientUnits="userSpaceOnUse">
<stop stop-color="#FF9CBF"/>
<stop offset="1" stop-color="#171BFF"/>
</linearGradient>
<linearGradient id="paint11_linear_67_22235" x1="0.870203" y1="749.997" x2="35.2148" y2="741.385" gradientUnits="userSpaceOnUse">
<stop stop-color="#FF9CBF"/>
<stop offset="1" stop-color="#171BFF"/>
</linearGradient>
<linearGradient id="paint12_linear_67_22235" x1="35.7149" y1="699.386" x2="39.5137" y2="734.592" gradientUnits="userSpaceOnUse">
<stop stop-color="#FF9CBF"/>
<stop offset="1" stop-color="#171BFF"/>
</linearGradient>
<linearGradient id="paint13_linear_67_22235" x1="29.7222" y1="767.829" x2="62.6096" y2="754.71" gradientUnits="userSpaceOnUse">
<stop stop-color="#FF9CBF"/>
<stop offset="1" stop-color="#171BFF"/>
</linearGradient>
<linearGradient id="paint14_linear_67_22235" x1="58.0009" y1="712.926" x2="66.0219" y2="747.415" gradientUnits="userSpaceOnUse">
<stop stop-color="#FF9CBF"/>
<stop offset="1" stop-color="#171BFF"/>
</linearGradient>
<linearGradient id="paint15_linear_67_22235" x1="58.4644" y1="781.028" x2="89.7954" y2="764.53" gradientUnits="userSpaceOnUse">
<stop stop-color="#FF9CBF"/>
<stop offset="1" stop-color="#171BFF"/>
</linearGradient>
<linearGradient id="paint16_linear_67_22235" x1="80.826" y1="723.46" x2="92.4216" y2="756.918" gradientUnits="userSpaceOnUse">
<stop stop-color="#FF9CBF"/>
<stop offset="1" stop-color="#171BFF"/>
</linearGradient>
<linearGradient id="paint17_linear_67_22235" x1="878.182" y1="362.467" x2="851.299" y2="392.666" gradientUnits="userSpaceOnUse">
<stop stop-color="#65C25F"/>
<stop offset="1" stop-color="#05614F"/>
</linearGradient>
<linearGradient id="paint18_linear_67_22235" x1="823.339" y1="372.301" x2="833.731" y2="411.373" gradientUnits="userSpaceOnUse">
<stop stop-color="#65C25F"/>
<stop offset="1" stop-color="#05614F"/>
</linearGradient>
<linearGradient id="paint19_linear_67_22235" x1="881.69" y1="411.261" x2="841.556" y2="416.17" gradientUnits="userSpaceOnUse">
<stop stop-color="#65C25F"/>
<stop offset="1" stop-color="#05614F"/>
</linearGradient>
<linearGradient id="paint20_linear_67_22235" x1="803.448" y1="405.534" x2="818.962" y2="442.869" gradientUnits="userSpaceOnUse">
<stop stop-color="#65C25F"/>
<stop offset="1" stop-color="#05614F"/>
</linearGradient>
<linearGradient id="paint21_linear_67_22235" x1="866.595" y1="436.925" x2="827.35" y2="446.645" gradientUnits="userSpaceOnUse">
<stop stop-color="#65C25F"/>
<stop offset="1" stop-color="#05614F"/>
</linearGradient>
<linearGradient id="paint22_linear_67_22235" x1="788.847" y1="438.566" x2="808.194" y2="474.067" gradientUnits="userSpaceOnUse">
<stop stop-color="#65C25F"/>
<stop offset="1" stop-color="#05614F"/>
</linearGradient>
<linearGradient id="paint23_linear_67_22235" x1="854.939" y1="463.158" x2="816.928" y2="476.942" gradientUnits="userSpaceOnUse">
<stop stop-color="#65C25F"/>
<stop offset="1" stop-color="#05614F"/>
</linearGradient>
<linearGradient id="paint24_linear_67_22235" x1="253.836" y1="37.3518" x2="226.954" y2="67.5512" gradientUnits="userSpaceOnUse">
<stop stop-color="#65C25F"/>
<stop offset="1" stop-color="#05614F"/>
</linearGradient>
<linearGradient id="paint25_linear_67_22235" x1="198.994" y1="47.1855" x2="209.386" y2="86.258" gradientUnits="userSpaceOnUse">
<stop stop-color="#65C25F"/>
<stop offset="1" stop-color="#05614F"/>
</linearGradient>
<linearGradient id="paint26_linear_67_22235" x1="257.344" y1="86.1455" x2="217.211" y2="91.0548" gradientUnits="userSpaceOnUse">
<stop stop-color="#65C25F"/>
<stop offset="1" stop-color="#05614F"/>
</linearGradient>
<linearGradient id="paint27_linear_67_22235" x1="179.102" y1="80.4188" x2="194.616" y2="117.754" gradientUnits="userSpaceOnUse">
<stop stop-color="#65C25F"/>
<stop offset="1" stop-color="#05614F"/>
</linearGradient>
<linearGradient id="paint28_linear_67_22235" x1="242.25" y1="111.81" x2="203.004" y2="121.53" gradientUnits="userSpaceOnUse">
<stop stop-color="#65C25F"/>
<stop offset="1" stop-color="#05614F"/>
</linearGradient>
<linearGradient id="paint29_linear_67_22235" x1="164.502" y1="113.451" x2="183.849" y2="148.952" gradientUnits="userSpaceOnUse">
<stop stop-color="#65C25F"/>
<stop offset="1" stop-color="#05614F"/>
</linearGradient>
<linearGradient id="paint30_linear_67_22235" x1="230.593" y1="138.043" x2="192.583" y2="151.827" gradientUnits="userSpaceOnUse">
<stop stop-color="#65C25F"/>
<stop offset="1" stop-color="#05614F"/>
</linearGradient>
<linearGradient id="paint31_linear_67_22235" x1="719.05" y1="388.921" x2="752.378" y2="388.921" gradientUnits="userSpaceOnUse">
<stop stop-color="#FFCEE0"/>
<stop offset="1" stop-color="#FF498A"/>
</linearGradient>
<linearGradient id="paint32_linear_67_22235" x1="523.502" y1="552.101" x2="499.193" y2="589.705" gradientUnits="userSpaceOnUse">
<stop stop-color="#FF9CBF"/>
<stop offset="1" stop-color="#171BFF"/>
</linearGradient>
<linearGradient id="paint33_linear_67_22235" x1="529.178" y1="613.548" x2="484.403" y2="613.978" gradientUnits="userSpaceOnUse">
<stop stop-color="#FF9CBF"/>
<stop offset="1" stop-color="#171BFF"/>
</linearGradient>
<linearGradient id="paint34_linear_67_22235" x1="470.378" y1="562.748" x2="476.974" y2="607.039" gradientUnits="userSpaceOnUse">
<stop stop-color="#FF9CBF"/>
<stop offset="1" stop-color="#171BFF"/>
</linearGradient>
<linearGradient id="paint35_linear_67_22235" x1="499.566" y1="644.583" x2="455.137" y2="639.029" gradientUnits="userSpaceOnUse">
<stop stop-color="#FF9CBF"/>
<stop offset="1" stop-color="#171BFF"/>
</linearGradient>
<linearGradient id="paint36_linear_67_22235" x1="447.435" y1="586.432" x2="448.634" y2="631.193" gradientUnits="userSpaceOnUse">
<stop stop-color="#FF9CBF"/>
<stop offset="1" stop-color="#171BFF"/>
</linearGradient>
<linearGradient id="paint37_linear_67_22235" x1="468.612" y1="669.911" x2="425.008" y2="659.725" gradientUnits="userSpaceOnUse">
<stop stop-color="#FF9CBF"/>
<stop offset="1" stop-color="#171BFF"/>
</linearGradient>
<linearGradient id="paint38_linear_67_22235" x1="422.866" y1="606.609" x2="419.362" y2="651.251" gradientUnits="userSpaceOnUse">
<stop stop-color="#FF9CBF"/>
<stop offset="1" stop-color="#171BFF"/>
</linearGradient>
<linearGradient id="paint39_linear_67_22235" x1="745.535" y1="652.249" x2="750.361" y2="696.767" gradientUnits="userSpaceOnUse">
<stop stop-color="#FFCEE0"/>
<stop offset="1" stop-color="#FF498A"/>
</linearGradient>
<linearGradient id="paint40_linear_67_22235" x1="788.669" y1="696.381" x2="754.178" y2="724.931" gradientUnits="userSpaceOnUse">
<stop stop-color="#FFCEE0"/>
<stop offset="1" stop-color="#FF498A"/>
</linearGradient>
<linearGradient id="paint41_linear_67_22235" x1="711.004" y1="693.994" x2="744.037" y2="724.227" gradientUnits="userSpaceOnUse">
<stop stop-color="#FFCEE0"/>
<stop offset="1" stop-color="#FF498A"/>
</linearGradient>
<linearGradient id="paint42_linear_67_22235" x1="785.239" y1="739.136" x2="747.243" y2="762.827" gradientUnits="userSpaceOnUse">
<stop stop-color="#FFCEE0"/>
<stop offset="1" stop-color="#FF498A"/>
</linearGradient>
<linearGradient id="paint43_linear_67_22235" x1="708.114" y1="726.844" x2="737.256" y2="760.841" gradientUnits="userSpaceOnUse">
<stop stop-color="#FFCEE0"/>
<stop offset="1" stop-color="#FF498A"/>
</linearGradient>
<linearGradient id="paint44_linear_67_22235" x1="777.169" y1="778.311" x2="736.898" y2="797.883" gradientUnits="userSpaceOnUse">
<stop stop-color="#FFCEE0"/>
<stop offset="1" stop-color="#FF498A"/>
</linearGradient>
<linearGradient id="paint45_linear_67_22235" x1="701.76" y1="757.992" x2="727.17" y2="794.863" gradientUnits="userSpaceOnUse">
<stop stop-color="#FFCEE0"/>
<stop offset="1" stop-color="#FF498A"/>
</linearGradient>
<linearGradient id="paint46_linear_67_22235" x1="706.787" y1="687.438" x2="704.878" y2="727.824" gradientUnits="userSpaceOnUse">
<stop stop-color="#65C25F"/>
<stop offset="1" stop-color="#05614F"/>
</linearGradient>
<linearGradient id="paint47_linear_67_22235" x1="670.329" y1="729.576" x2="702.982" y2="753.419" gradientUnits="userSpaceOnUse">
<stop stop-color="#65C25F"/>
<stop offset="1" stop-color="#05614F"/>
</linearGradient>
<linearGradient id="paint48_linear_67_22235" x1="740.2" y1="723.167" x2="712.087" y2="752.226" gradientUnits="userSpaceOnUse">
<stop stop-color="#65C25F"/>
<stop offset="1" stop-color="#05614F"/>
</linearGradient>
<linearGradient id="paint49_linear_67_22235" x1="675.768" y1="767.922" x2="711.311" y2="787.192" gradientUnits="userSpaceOnUse">
<stop stop-color="#65C25F"/>
<stop offset="1" stop-color="#05614F"/>
</linearGradient>
<linearGradient id="paint50_linear_67_22235" x1="744.604" y1="752.616" x2="720.204" y2="784.855" gradientUnits="userSpaceOnUse">
<stop stop-color="#65C25F"/>
<stop offset="1" stop-color="#05614F"/>
</linearGradient>
<linearGradient id="paint51_linear_67_22235" x1="685.19" y1="802.786" x2="722.558" y2="818.221" gradientUnits="userSpaceOnUse">
<stop stop-color="#65C25F"/>
<stop offset="1" stop-color="#05614F"/>
</linearGradient>
<linearGradient id="paint52_linear_67_22235" x1="752.04" y1="780.34" x2="731.159" y2="814.963" gradientUnits="userSpaceOnUse">
<stop stop-color="#65C25F"/>
<stop offset="1" stop-color="#05614F"/>
</linearGradient>
<linearGradient id="paint53_linear_67_22235" x1="-34.7514" y1="350.111" x2="8.68041" y2="339.221" gradientUnits="userSpaceOnUse">
<stop stop-color="#FF9CBF"/>
<stop offset="1" stop-color="#171BFF"/>
</linearGradient>
<linearGradient id="paint54_linear_67_22235" x1="9.31242" y1="286.109" x2="14.1162" y2="330.63" gradientUnits="userSpaceOnUse">
<stop stop-color="#FF9CBF"/>
<stop offset="1" stop-color="#171BFF"/>
</linearGradient>
<linearGradient id="paint55_linear_67_22235" x1="1.7357" y1="372.661" x2="43.325" y2="356.071" gradientUnits="userSpaceOnUse">
<stop stop-color="#FF9CBF"/>
<stop offset="1" stop-color="#171BFF"/>
</linearGradient>
<linearGradient id="paint56_linear_67_22235" x1="37.496" y1="303.232" x2="47.6392" y2="346.846" gradientUnits="userSpaceOnUse">
<stop stop-color="#FF9CBF"/>
<stop offset="1" stop-color="#171BFF"/>
</linearGradient>
<linearGradient id="paint57_linear_67_22235" x1="38.0825" y1="389.352" x2="77.7032" y2="368.489" gradientUnits="userSpaceOnUse">
<stop stop-color="#FF9CBF"/>
<stop offset="1" stop-color="#171BFF"/>
</linearGradient>
<linearGradient id="paint58_linear_67_22235" x1="66.362" y1="316.553" x2="81.0257" y2="358.864" gradientUnits="userSpaceOnUse">
<stop stop-color="#FF9CBF"/>
<stop offset="1" stop-color="#171BFF"/>
</linearGradient>
<linearGradient id="paint59_linear_67_22235" x1="594.702" y1="175.852" x2="621.057" y2="175.852" gradientUnits="userSpaceOnUse">
<stop stop-color="#FFCEE0"/>
<stop offset="1" stop-color="#FF498A"/>
</linearGradient>
<linearGradient id="paint60_linear_67_22235" x1="737.653" y1="-8.51848" x2="768.022" y2="19.3041" gradientUnits="userSpaceOnUse">
<stop stop-color="#FF9CBF"/>
<stop offset="1" stop-color="#171BFF"/>
</linearGradient>
<linearGradient id="paint61_linear_67_22235" x1="746.874" y1="47.4909" x2="786.824" y2="37.4737" gradientUnits="userSpaceOnUse">
<stop stop-color="#FF9CBF"/>
<stop offset="1" stop-color="#171BFF"/>
</linearGradient>
<linearGradient id="paint62_linear_67_22235" x1="787.406" y1="-11.3796" x2="791.825" y2="29.5721" gradientUnits="userSpaceOnUse">
<stop stop-color="#FF9CBF"/>
<stop offset="1" stop-color="#171BFF"/>
</linearGradient>
<linearGradient id="paint63_linear_67_22235" x1="780.434" y1="68.2339" x2="818.689" y2="52.9736" gradientUnits="userSpaceOnUse">
<stop stop-color="#FF9CBF"/>
<stop offset="1" stop-color="#171BFF"/>
</linearGradient>
<linearGradient id="paint64_linear_67_22235" x1="813.329" y1="4.36983" x2="822.659" y2="44.4882" gradientUnits="userSpaceOnUse">
<stop stop-color="#FF9CBF"/>
<stop offset="1" stop-color="#171BFF"/>
</linearGradient>
<linearGradient id="paint65_linear_67_22235" x1="813.868" y1="83.5865" x2="850.313" y2="64.3959" gradientUnits="userSpaceOnUse">
<stop stop-color="#FF9CBF"/>
<stop offset="1" stop-color="#171BFF"/>
</linearGradient>
<linearGradient id="paint66_linear_67_22235" x1="839.88" y1="16.6235" x2="853.368" y2="55.5422" gradientUnits="userSpaceOnUse">
<stop stop-color="#FF9CBF"/>
<stop offset="1" stop-color="#171BFF"/>
</linearGradient>
<linearGradient id="paint67_linear_67_22235" x1="420.185" y1="615.239" x2="420.185" y2="1011.11" gradientUnits="userSpaceOnUse">
<stop stop-color="#3CCFB5"/>
<stop offset="1" stop-color="#00FFD2" stop-opacity="0"/>
</linearGradient>
<clipPath id="clip0_67_22235">
<rect width="876.982" height="819" fill="white" transform="translate(-19 -6)"/>
</clipPath>
</defs>
</svg>
